<svg viewBox="0 0 1024 1024" xmlns="http://www.w3.org/2000/svg">
  <rect width="1024" height="1024" fill="#FAF3E6"/>
  <!-- glow halo (glowing object: no long shadow) -->
  <circle cx="512" cy="460" r="310" fill="#F7ECF3" opacity="0.5"/>
  <circle cx="512" cy="460" r="235" fill="#F5E2EC" opacity="0.55"/>
  <circle cx="512" cy="460" r="165" fill="#F2D8E6" opacity="0.6"/>
  <!-- ground -->
  <ellipse cx="512" cy="716" rx="250" ry="15" fill="#EADBBD"/>
  <!-- pedestal -->
  <rect x="326" y="684" width="372" height="34" rx="14" fill="#8F96A1"/>
  <rect x="326" y="684" width="372" height="16" rx="8" fill="#A9AFB8"/>
  <rect x="346" y="650" width="332" height="40" rx="10" fill="#A9AFB8"/>
  <rect x="346" y="650" width="332" height="18" rx="9" fill="#C9CDD4"/>
  <line x1="354" y1="676" x2="670" y2="676" stroke="#8F96A1" stroke-width="3"/>
  <circle cx="368" cy="701" r="5" fill="#6F7682"/>
  <circle cx="656" cy="701" r="5" fill="#6F7682"/>
  <!-- single indicator light -->
  <circle cx="630" cy="669" r="7" fill="#7FB8BF"/>
  <circle cx="628" cy="667" r="2.5" fill="#FFFFFF" opacity="0.9"/>
  <!-- occlusion: glass meets pedestal -->
  <rect x="368" y="644" width="288" height="8" rx="4" fill="#3E332C" opacity="0.16"/>
  <!-- glass case -->
  <rect x="362" y="258" width="300" height="392" rx="18" fill="#FFFFFF" opacity="0.45"/>
  <!-- chip glow -->
  <circle cx="512" cy="450" r="112" fill="#FFFFFF" opacity="0.7"/>
  <!-- chip pins -->
  <g fill="#A9AFB8">
    <rect x="419" y="400" width="24" height="13" rx="4"/>
    <rect x="419" y="434" width="24" height="13" rx="4"/>
    <rect x="419" y="468" width="24" height="13" rx="4"/>
    <rect x="419" y="502" width="24" height="13" rx="4"/>
    <rect x="581" y="400" width="24" height="13" rx="4"/>
    <rect x="581" y="434" width="24" height="13" rx="4"/>
    <rect x="581" y="468" width="24" height="13" rx="4"/>
    <rect x="581" y="502" width="24" height="13" rx="4"/>
  </g>
  <!-- chip body -->
  <rect x="437" y="375" width="150" height="150" rx="12" fill="#655B72"/>
  <rect x="447" y="385" width="130" height="130" rx="8" fill="#756A85"/>
  <path d="M452 392 H560" stroke="#FFFFFF" stroke-width="5" stroke-linecap="round" opacity="0.35"/>
  <!-- circuit traces -->
  <g stroke="#7FB8BF" stroke-width="5" fill="none" stroke-linecap="round">
    <path d="M512 418 V398"/>
    <path d="M544 434 H564"/>
    <path d="M544 466 H558 V496"/>
    <path d="M512 482 V508"/>
    <path d="M480 466 H456"/>
    <path d="M480 434 H466 V410"/>
  </g>
  <g fill="#7FB8BF">
    <circle cx="512" cy="395" r="5"/>
    <circle cx="567" cy="434" r="5"/>
    <circle cx="558" cy="499" r="5"/>
    <circle cx="512" cy="511" r="5"/>
    <circle cx="453" cy="466" r="5"/>
    <circle cx="466" cy="407" r="5"/>
  </g>
  <!-- glowing core -->
  <circle cx="512" cy="450" r="52" fill="#E9C2DA" opacity="0.85"/>
  <rect x="480" y="418" width="64" height="64" rx="10" fill="#FFFFFF"/>
  <rect x="480" y="418" width="64" height="64" rx="10" fill="none" stroke="#C77DA6" stroke-width="5"/>
  <!-- glass frame + highlights -->
  <rect x="362" y="258" width="300" height="392" rx="18" fill="none" stroke="#D8CDB5" stroke-width="6"/>
  <path d="M392 302 V430" stroke="#FFFFFF" stroke-width="10" stroke-linecap="round" opacity="0.8"/>
  <path d="M412 288 V336" stroke="#FFFFFF" stroke-width="8" stroke-linecap="round" opacity="0.6"/>
  <path d="M634 556 V616" stroke="#FFFFFF" stroke-width="8" stroke-linecap="round" opacity="0.5"/>
</svg>
