<svg viewBox="0 0 1024 1024" xmlns="http://www.w3.org/2000/svg">
  <defs>
    <clipPath id="catClip">
      <path d="M462 380 C420 470 408 560 420 604 L604 604 C616 560 604 470 562 380 Z"/>
      <circle cx="512" cy="330" r="62"/>
      <path d="M468 290 L446 232 L502 264 Z"/>
      <path d="M556 290 L578 232 L522 264 Z"/>
    </clipPath>
  </defs>
  <rect width="1024" height="1024" fill="#FAF3E6"/>
  <!-- glow halo -->
  <circle cx="512" cy="430" r="300" fill="#E9F2F3" opacity="0.5"/>
  <circle cx="512" cy="430" r="228" fill="#DFEEF0" opacity="0.55"/>
  <circle cx="512" cy="430" r="158" fill="#D4E8EA" opacity="0.6"/>
  <!-- ground -->
  <ellipse cx="512" cy="724" rx="220" ry="15" fill="#EADBBD"/>
  <ellipse cx="512" cy="714" rx="150" ry="10" fill="#3E332C" opacity="0.1"/>
  <!-- base cylinder -->
  <path d="M388 660 L388 690 A124 28 0 0 0 636 690 L636 660 Z" fill="#A9AFB8"/>
  <path d="M512 660 L636 660 L636 690 A124 28 0 0 1 512 718 Z" fill="#9CA3AD"/>
  <path d="M391 670 a124 26 0 0 0 242 0" fill="none" stroke="#8F96A1" stroke-width="3"/>
  <circle cx="438" cy="694" r="4" fill="#777E89"/>
  <circle cx="540" cy="703" r="4" fill="#777E89"/>
  <circle cx="596" cy="692" r="6" fill="#C77DA6"/>
  <circle cx="594.5" cy="690.5" r="2" fill="#FFFFFF" opacity="0.9"/>
  <ellipse cx="512" cy="660" rx="124" ry="28" fill="#C9CDD4"/>
  <ellipse cx="512" cy="660" rx="98" ry="21" fill="#BDC2CA"/>
  <path d="M398 654 a98 20 0 0 1 76 -18" fill="none" stroke="#FFFFFF" stroke-width="5" stroke-linecap="round" opacity="0.6"/>
  <ellipse cx="512" cy="660" rx="64" ry="14" fill="#E6F3F4" stroke="#7FB8BF" stroke-width="5"/>
  <ellipse cx="512" cy="660" rx="36" ry="8" fill="#FFFFFF" opacity="0.95"/>
  <!-- beam from emitter to cat -->
  <path d="M476 658 Q512 668 548 658 L584 604 L440 604 Z" fill="#D6ECEE" opacity="0.5"/>
  <!-- cat hologram: body, head, ears, tail -->
  <g>
    <path d="M598 600 C654 590 666 536 638 496" fill="none" stroke="#BCE0E3" stroke-width="26" stroke-linecap="round" opacity="0.95"/>
    <path d="M462 380 C420 470 408 560 420 604 L604 604 C616 560 604 470 562 380 Z" fill="#BCE0E3" opacity="0.95"/>
    <circle cx="512" cy="330" r="62" fill="#BCE0E3" opacity="0.95"/>
    <path d="M468 290 L446 232 L502 264 Z" fill="#BCE0E3" opacity="0.95"/>
    <path d="M556 290 L578 232 L522 264 Z" fill="#BCE0E3" opacity="0.95"/>
  </g>
  <!-- inner white glow core -->
  <path d="M484 392 C456 470 448 548 456 588 L568 588 C576 548 568 470 540 392 Z" fill="#FFFFFF" opacity="0.65"/>
  <circle cx="512" cy="330" r="40" fill="#FFFFFF" opacity="0.65"/>
  <!-- holo scanlines (clipped to cat) -->
  <g clip-path="url(#catClip)">
    <rect x="380" y="300" width="280" height="7" fill="#FFFFFF" opacity="0.5"/>
    <rect x="380" y="382" width="280" height="7" fill="#FFFFFF" opacity="0.45"/>
    <rect x="380" y="466" width="280" height="7" fill="#FFFFFF" opacity="0.4"/>
    <rect x="380" y="548" width="280" height="7" fill="#FFFFFF" opacity="0.4"/>
  </g>
  <!-- cat rim light -->
  <path d="M462 380 C420 470 408 560 420 604" fill="none" stroke="#7FB8BF" stroke-width="4" opacity="0.7"/>
  <path d="M556 290 L578 232" fill="none" stroke="#7FB8BF" stroke-width="4" opacity="0.7"/>
  <path d="M604 604 C616 560 604 470 562 380" fill="none" stroke="#7FB8BF" stroke-width="4" opacity="0.7"/>
  <!-- sparkle -->
  <path d="M652 300 l5 16 16 5 -16 5 -5 16 -5 -16 -16 -5 16 -5 Z" fill="#7FB8BF" opacity="0.75"/>
</svg>
