<svg viewBox="0 0 1024 1024" xmlns="http://www.w3.org/2000/svg">
  <rect width="1024" height="1024" fill="#FAF3E6"/>
  <!-- long shadow -->
  <g transform="translate(60,44)" fill="#F1E3C9">
    <circle cx="450" cy="450" r="228"/>
    <rect x="270" y="500" width="500" height="372" rx="6"/>
  </g>
  <!-- ground -->
  <ellipse cx="525" cy="872" rx="270" ry="16" fill="#EADBBD"/>
  <!-- record -->
  <circle cx="450" cy="450" r="225" fill="#44362C"/>
  <g fill="none" stroke="#5E4A3C" stroke-width="2">
    <circle cx="450" cy="450" r="212"/>
    <circle cx="450" cy="450" r="198"/>
    <circle cx="450" cy="450" r="184"/>
    <circle cx="450" cy="450" r="170"/>
    <circle cx="450" cy="450" r="156"/>
    <circle cx="450" cy="450" r="142"/>
    <circle cx="450" cy="450" r="128"/>
    <circle cx="450" cy="450" r="114"/>
  </g>
  <!-- light sheen wedges -->
  <path d="M450,450 L310,262 L368,216 Z" fill="#FFFFFF" opacity="0.05"/>
  <path d="M450,450 L556,238 L598,264 Z" fill="#FFFFFF" opacity="0.05"/>
  <!-- label -->
  <circle cx="450" cy="450" r="86" fill="#7FAFA3"/>
  <circle cx="450" cy="450" r="66" fill="none" stroke="#6FA89B" stroke-width="3"/>
  <circle cx="450" cy="450" r="13" fill="#F1E3C9" stroke="#5E4A3C" stroke-width="3"/>
  <!-- record rim highlight -->
  <path d="M241,394 A216,216 0 0 1 342,263" stroke="#FFFFFF" stroke-width="6" fill="none" stroke-linecap="round" opacity="0.3"/>
  <!-- sleeve -->
  <rect x="270" y="500" width="500" height="370" rx="6" fill="#E0CDA4"/>
  <rect x="752" y="506" width="18" height="358" fill="#C9B488"/>
  <rect x="270" y="500" width="500" height="16" fill="#C9B488"/>
  <rect x="276" y="516" width="380" height="12" rx="6" fill="#A8946E" opacity="0.5"/>
  <circle cx="470" cy="730" r="120" fill="none" stroke="#C3AC80" stroke-width="10" opacity="0.18"/>
  <path d="M300,830 Q340,824 372,830" stroke="#C9B488" stroke-width="4" fill="none" opacity="0.6"/>
  <path d="M660,818 Q700,812 736,820" stroke="#C9B488" stroke-width="4" fill="none" opacity="0.5"/>
  <line x1="278" y1="502" x2="762" y2="502" stroke="#FFFFFF" stroke-width="3" opacity="0.35"/>
</svg>
