<svg viewBox="0 0 1024 1024" xmlns="http://www.w3.org/2000/svg">
<rect width="1024" height="1024" fill="#FAF3E6"/>
<!-- long shadow -->
<g fill="#F1E3C9" transform="translate(60,44)">
  <circle cx="345" cy="392" r="88"/>
  <ellipse cx="500" cy="525" rx="180" ry="135"/>
  <polygon points="630,465 812,415 824,505 660,560"/>
  <rect x="452" y="630" width="16" height="92"/>
  <rect x="540" y="632" width="16" height="90"/>
</g>
<!-- ground -->
<ellipse cx="500" cy="724" rx="225" ry="14" fill="#EADBBD"/>
<!-- wind-up key (behind body) -->
<line x1="575" y1="448" x2="672" y2="352" stroke="#C28F3F" stroke-width="14" stroke-linecap="round"/>
<circle cx="694" cy="330" r="32" fill="none" stroke="#C28F3F" stroke-width="17"/>
<path d="M 670 310 A 32 32 0 0 1 716 308" fill="none" stroke="#EFCB8B" stroke-width="6" stroke-linecap="round"/>
<!-- tail feathers -->
<polygon points="628,468 800,418 814,452 656,540" fill="#C28F3F"/>
<polygon points="638,498 818,468 822,504 660,560" fill="#6FA89B"/>
<polygon points="648,528 812,520 808,552 662,578" fill="#A87844"/>
<!-- legs -->
<line x1="460" y1="640" x2="460" y2="716" stroke="#8C6239" stroke-width="11"/>
<line x1="548" y1="644" x2="548" y2="716" stroke="#8C6239" stroke-width="11"/>
<circle cx="460" cy="664" r="6" fill="#5E4730"/>
<circle cx="548" cy="668" r="6" fill="#5E4730"/>
<line x1="436" y1="716" x2="486" y2="716" stroke="#8C6239" stroke-width="10" stroke-linecap="round"/>
<line x1="524" y1="716" x2="574" y2="716" stroke="#8C6239" stroke-width="10" stroke-linecap="round"/>
<!-- body -->
<ellipse cx="500" cy="525" rx="178" ry="133" fill="#C28F3F"/>
<ellipse cx="500" cy="512" rx="168" ry="115" fill="#D9A856"/>
<path d="M 380 432 Q 470 388 580 425" stroke="#EFCB8B" stroke-width="10" fill="none" opacity="0.85" stroke-linecap="round"/>
<!-- key escutcheon on back -->
<circle cx="588" cy="436" r="13" fill="#A87844" stroke="#8C6239" stroke-width="4"/>
<!-- head -->
<circle cx="345" cy="392" r="86" fill="#D9A856"/>
<path d="M 290 345 A 76 76 0 0 1 348 318" stroke="#EFCB8B" stroke-width="9" fill="none" opacity="0.85" stroke-linecap="round"/>
<!-- neck seam + rivets -->
<path d="M 302 462 Q 360 488 416 452" stroke="#C09058" stroke-width="5" fill="none"/>
<circle cx="318" cy="470" r="4.5" fill="#8C6239"/>
<circle cx="358" cy="480" r="4.5" fill="#8C6239"/>
<circle cx="398" cy="462" r="4.5" fill="#8C6239"/>
<!-- beak -->
<polygon points="268,386 200,408 268,430" fill="#8C6239"/>
<polygon points="268,386 200,408 268,408" fill="#A87844"/>
<!-- rivet eye -->
<circle cx="338" cy="388" r="15" fill="#A87844" stroke="#8C6239" stroke-width="5"/>
<circle cx="338" cy="388" r="5" fill="#5E4730"/>
<!-- wing: hinged panels -->
<ellipse cx="560" cy="505" rx="105" ry="34" fill="#C09058" transform="rotate(12 560 505)"/>
<ellipse cx="552" cy="542" rx="98" ry="32" fill="#A87844" transform="rotate(20 552 542)"/>
<ellipse cx="538" cy="576" rx="88" ry="30" fill="#8C6239" transform="rotate(30 538 576)"/>
<circle cx="648" cy="532" r="5" fill="#5E4730"/>
<circle cx="636" cy="578" r="5" fill="#5E4730"/>
<circle cx="610" cy="618" r="5" fill="#5E4730"/>
<!-- wing pivot -->
<circle cx="455" cy="470" r="21" fill="#C28F3F" stroke="#8C6239" stroke-width="5"/>
<circle cx="455" cy="470" r="7" fill="#5E4730"/>
<!-- belly occlusion above legs -->
<path d="M 430 648 Q 505 670 578 650" stroke="#8C6239" stroke-width="8" fill="none" opacity="0.45"/>
</svg>
