<svg width="1024" height="1024" viewBox="0 0 1024 1024" xmlns="http://www.w3.org/2000/svg">
  <rect width="1024" height="1024" fill="#FAF3E6"/>
  <!-- long cast shadow -->
  <rect x="398" y="368" width="332" height="372" rx="14" fill="#F1E3C9"/>
  <!-- ground contact -->
  <ellipse cx="512" cy="740" rx="220" ry="16" fill="#EADBBD"/>

  <!-- page block -->
  <rect x="352" y="338" width="328" height="372" rx="10" fill="#E8DCC4"/>
  <rect x="352" y="346" width="328" height="356" rx="10" fill="#F2E9D8"/>
  <!-- cover -->
  <rect x="338" y="322" width="332" height="372" rx="12" fill="#7A5C48"/>
  <!-- spine shading (left) -->
  <rect x="338" y="322" width="44" height="372" rx="12" fill="#684C3B"/>
  <!-- leather scuff highlights -->
  <path d="M 360 348 Q 400 336 450 338" fill="none" stroke="#8F6F58" stroke-width="5" stroke-linecap="round" opacity="0.8"/>
  <path d="M 380 660 Q 420 672 480 670" fill="none" stroke="#684C3B" stroke-width="5" stroke-linecap="round" opacity="0.7"/>
  <!-- embossed border with corner flourishes -->
  <rect x="398" y="356" width="240" height="304" rx="10" fill="none" stroke="#8F6F58" stroke-width="6"/>
  <g fill="none" stroke="#8F6F58" stroke-width="4" stroke-linecap="round">
    <path d="M 410 380 Q 424 366 440 372"/>
    <path d="M 626 380 Q 612 366 596 372"/>
    <path d="M 410 636 Q 424 650 440 644"/>
    <path d="M 626 636 Q 612 650 596 644"/>
  </g>

  <!-- brass corner caps -->
  <path d="M 338 322 L 338 380 Q 338 326 392 326 L 338 322 Z" fill="#C28F3F"/>
  <path d="M 638 322 L 670 322 L 670 380 Q 666 332 614 326 Q 626 322 638 322 Z" fill="#C28F3F"/>
  <path d="M 670 636 L 670 694 L 614 690 Q 666 684 670 636 Z" fill="#C28F3F"/>
  <path d="M 338 636 L 338 694 L 394 690 Q 342 684 338 636 Z" fill="#C28F3F"/>

  <!-- center gem in gold setting with prongs -->
  <circle cx="518" cy="508" r="46" fill="#C28F3F"/>
  <path d="M 484 484 A 42 42 0 0 1 518 466" fill="none" stroke="#D9A856" stroke-width="7" stroke-linecap="round"/>
  <circle cx="518" cy="508" r="36" fill="#D9A856"/>
  <path d="M 518 480 L 542 508 L 518 536 L 494 508 Z" fill="#7FAFA3"/>
  <path d="M 518 480 L 542 508 L 518 514 Z" fill="#9CCFC4"/>
  <path d="M 518 514 L 494 508 L 518 536 Z" fill="#5F8E82"/>
  <line x1="518" y1="480" x2="518" y2="536" stroke="#C8E6DD" stroke-width="2" opacity="0.7"/>
  <g fill="#A8762F">
    <circle cx="518" cy="476" r="4"/>
    <circle cx="546" cy="508" r="4"/>
    <circle cx="518" cy="540" r="4"/>
    <circle cx="490" cy="508" r="4"/>
  </g>
  <!-- corner rivets -->
  <g fill="#A8762F">
    <circle cx="352" cy="336" r="4.5"/>
    <circle cx="656" cy="336" r="4.5"/>
    <circle cx="352" cy="680" r="4.5"/>
    <circle cx="656" cy="680" r="4.5"/>
  </g>

  <!-- clasp strap -->
  <rect x="652" y="486" width="52" height="44" rx="10" fill="#C28F3F"/>
  <rect x="664" y="496" width="26" height="24" rx="6" fill="#A8762F"/>

  <!-- faint sparkles -->
  <path d="M 326 270 L 332 286 L 348 292 L 332 298 L 326 314 L 320 298 L 304 292 L 320 286 Z" fill="#C7B3DC" opacity="0.85"/>
  <circle cx="712" cy="300" r="6" fill="#C7B3DC" opacity="0.7"/>
</svg>
