<svg width="1024" height="1024" viewBox="0 0 1024 1024" xmlns="http://www.w3.org/2000/svg">
  <rect width="1024" height="1024" fill="#FAF3E6"/>
  <!-- long cast shadow -->
  <path d="M 588 424 C 660 472 700 520 696 584 C 690 660 636 716 560 728 L 540 712 C 612 692 648 632 648 566 C 648 510 624 464 572 432 Z" fill="#F1E3C9"/>
  <!-- ground contact -->
  <ellipse cx="512" cy="730" rx="195" ry="15" fill="#EADBBD"/>

  <!-- cork with cord wrap -->
  <rect x="486" y="240" width="52" height="58" rx="10" fill="#C09058"/>
  <rect x="486" y="240" width="20" height="58" rx="10" fill="#A87844"/>
  <ellipse cx="512" cy="242" rx="26" ry="8" fill="#D8B077"/>
  <line x1="488" y1="268" x2="536" y2="268" stroke="#8C6239" stroke-width="4"/>
  <line x1="488" y1="276" x2="536" y2="276" stroke="#8C6239" stroke-width="4"/>
  <rect x="478" y="288" width="68" height="16" rx="8" fill="#A87844"/>

  <!-- glass flask -->
  <path d="M 484 304 L 484 392 C 414 424 372 484 372 552 C 372 646 434 712 512 712 C 590 712 652 646 652 552 C 652 484 610 424 540 392 L 540 304 Z"
        fill="#F4EEE0" stroke="#D8CBB0" stroke-width="6"/>

  <!-- pink liquid -->
  <clipPath id="flask"><path d="M 484 304 L 484 392 C 414 424 372 484 372 552 C 372 646 434 712 512 712 C 590 712 652 646 652 552 C 652 484 610 424 540 392 L 540 304 Z"/></clipPath>
  <g clip-path="url(#flask)">
    <path d="M 360 502 Q 440 522 512 506 Q 590 490 664 508 L 664 730 L 360 730 Z" fill="#E8A0A8"/>
    <path d="M 540 502 Q 600 494 664 508 L 664 730 L 470 730 Q 560 640 540 502 Z" fill="#DE8C96"/>
    <!-- liquid surface -->
    <path d="M 360 502 Q 440 522 512 506 Q 590 490 664 508" fill="none" stroke="#F2B7BD" stroke-width="6" stroke-linecap="round"/>
    <ellipse cx="500" cy="512" rx="60" ry="8" fill="#F2B7BD" opacity="0.7"/>
    <!-- rising bubble trail -->
    <circle cx="470" cy="560" r="13" fill="#F6C6CB"/>
    <circle cx="478" cy="538" r="6" fill="#F6C6CB" opacity="0.9"/>
    <circle cx="540" cy="610" r="9" fill="#F6C6CB"/>
    <circle cx="548" cy="586" r="5" fill="#F6C6CB" opacity="0.85"/>
    <circle cx="492" cy="652" r="7" fill="#F6C6CB"/>
    <circle cx="566" cy="548" r="6" fill="#F6C6CB"/>
    <circle cx="520" cy="640" r="4.5" fill="#F6C6CB" opacity="0.8"/>
    <!-- glow at liquid bottom -->
    <ellipse cx="512" cy="690" rx="120" ry="30" fill="#F2B7BD" opacity="0.45"/>
    <!-- liquid edge shade -->
    <path d="M 396 560 Q 388 620 420 672" fill="none" stroke="#D47F8B" stroke-width="10" stroke-linecap="round" opacity="0.6"/>
  </g>

  <!-- glass shine -->
  <path d="M 432 452 Q 408 496 408 552" fill="none" stroke="#FFFDF4" stroke-width="13" stroke-linecap="round" opacity="0.9"/>

  <!-- tiny sparkle above -->
  <path d="M 626 330 L 631 344 L 645 349 L 631 354 L 626 368 L 621 354 L 607 349 L 621 344 Z" fill="#E8A0A8" opacity="0.9"/>
</svg>
